<?xml version="1.0" standalone="no"?>
<!DOCTYPE svg PUBLIC "-//W3C//DTD SVG 20010904//EN"
 "http://www.w3.org/TR/2001/REC-SVG-20010904/DTD/svg10.dtd">
<svg version="1.0" xmlns="http://www.w3.org/2000/svg"
 width="834.000000pt" height="720.000000pt" viewBox="0 0 834.000000 720.000000"
 preserveAspectRatio="xMidYMid meet">

<g transform="translate(0.000000,720.000000) scale(0.100000,-0.100000)"
fill="#000000" stroke="none">
<path d="M0 3600 l0 -3600 2080 0 2081 0 -12 23 c-11 21 -3993 6908 -4085
7067 l-44 75 112 5 c62 3 1930 4 4151 2 l4039 -2 -24 -43 c-13 -23 -940 -1626
-2060 -3562 -1119 -1936 -2040 -3530 -2047 -3542 l-12 -23 2081 0 2080 0 0
3600 0 3600 -4170 0 -4170 0 0 -3600z"/>
<path d="M565 6976 c11 -7 827 -527 1814 -1156 1534 -976 1797 -1140 1815
-1132 18 8 3549 2252 3601 2288 16 12 -526 14 -3615 14 -3073 0 -3631 -2
-3615 -14z"/>
<path d="M503 6713 c35 -60 853 -1474 1818 -3142 l1754 -3035 3 1984 c2 1579
-1 1987 -10 1996 -17 15 -3614 2304 -3622 2304 -3 0 23 -48 57 -107z"/>
<path d="M6068 5649 l-1808 -1150 0 -1982 c0 -1101 4 -1977 9 -1971 15 17
3613 6245 3609 6249 -1 2 -816 -514 -1810 -1146z"/>
</g>
</svg>
